<svg id="Capa_1" data-name="Capa 1" xmlns="http://www.w3.org/2000/svg" viewBox="0 0 365.27 69.23"><defs><style>.cls-1{fill:#4c4495;}.cls-2{fill:#090a0b;}.cls-3{fill:none;stroke:#000;stroke-miterlimit:10;stroke-width:2px;}.cls-4{fill:#010101;}</style></defs><path class="cls-1" d="M20.48,44.76q0-5.86,0-11.73c0-1,.08-2.05,1.36-2s.71,1.17.72,1.82c0,7.82,0,15.64,0,23.46a8.7,8.7,0,0,1,0,1,1.48,1.48,0,0,1-1.29,1.38c-.5,0-.73-.82-.73-1.46,0-3.4,0-6.81-.06-10.21V44.76Z"/><path class="cls-1" d="M17.83,35.63c0,7.16,0,14.14,0,21.12,0,.76,0,1.7-1.06,1.71s-.89-1.14-.9-1.7c-.08-6.3-.06-12.6-.07-18.9C15.79,36.69,16.28,35.94,17.83,35.63Z"/><path class="cls-2" d="M0,60.61c2.64,0,5.29-.18,7.92,0,1.83.1,2.31-.51,2.29-2.29-.09-8.26,0-16.53-.08-24.79a3.49,3.49,0,0,1,2.3-3.72,118.27,118.27,0,0,0,11.82-6.41,2,2,0,0,0,1-2.12c0-2.72.08-5.45,0-8.17A3.46,3.46,0,0,1,27,9.51c4.82-2.89,9.59-5.88,14.34-8.9a3.11,3.11,0,0,1,3.76.05q7.13,4.53,14.35,8.88a3.18,3.18,0,0,1,1.7,3.11c-.06,6.3.07,12.61-.07,18.9a3.23,3.23,0,0,0,2.17,3.5c3.47,1.64,6.81,3.53,10.29,5.12,2,.93,3,2.1,2.86,4.46-.2,4.68,0,9.37-.09,14,0,1.47.45,2,1.9,1.87,2.05-.11,4.11,0,6.15-.06a2.68,2.68,0,0,1,2.32,1.15v.51c-.56,1-1.46,1.15-2.55,1.14-4-.07-8-.07-12-.07L2,63.27c-.68,0-1.36-.06-2-.1Zm25.21-34L13.48,32.5c-.68.34-.53,1-.53,1.58,0,8.26,0,16.51,0,24.77,0,1.42.58,1.71,1.84,1.68q4.35-.09,8.71,0c1.3,0,1.83-.36,1.77-1.73-.1-2.3,0-4.6,0-6.9ZM61.16,37.21c0,7.59,0,14.71,0,21.82,0,1.35.6,1.52,1.71,1.5q4.47-.06,8.94,0c.83,0,1.26.06,1.38-1.1a43.06,43.06,0,0,0-.13-12c-.15-.79-.55-1.65,0-2.36.85-1.16.06-1.82-.72-2.23C68.75,41,65.16,39.22,61.16,37.21ZM58.47,60.8c-.49-2.15,1-4.31-1-5.68-4-2.69-8.05-5.2-12.19-7.85-.85,4.72-.82,4.77,2.61,6.9S54.62,58.39,58.47,60.8ZM45.31,12.46c-1,3.58-.29,5.84,2.86,7.29,2.3,1.07,4.33,2.7,6.57,3.94C56,24.36,56.47,26,58.22,26c.52-3.2.38-5.75-3.18-7.48C51.68,16.92,48.13,15.45,45.31,12.46Zm12.84,4.8c.47-3.56.47-4.82-.39-5.37-4.11-2.63-8.27-5.18-12.53-7.82-.66,4.17-.58,4.82,1,5.8C50.09,12.31,54,14.7,58.15,17.26Zm-.24,26.09c.08-2,1.49-4.11-.25-5.32-3.57-2.48-7.34-4.66-11-6.94-.51-.31-1.39-.61-1.49.13-.2,1.5-1,3.37.61,4.45C49.72,38.34,53.84,40.8,57.91,43.35Zm.47,8.46c-.27-1.93,1-4.09-.85-5.34-4-2.7-8.11-5.1-12.29-7.69-.79,4.76-.77,4.73,2.85,7A13.91,13.91,0,0,0,52,47.48C54.54,48.14,55.38,51.17,58.38,51.81ZM58.33,35c-.14-2.81,1.33-5.67-2.62-6.36-.29-.05-.51-.42-.78-.61-2.9-2-5.82-4-8.7-6-.54-.39-1.45-.62-1.42-.06.08,1.63-.86,3.82.52,4.81C49.38,29.63,53.72,32.1,58.33,35ZM52.44,60.52A45,45,0,0,0,45.07,56c-.38,4.57-.38,4.57,3.8,4.56Zm-18.27-21v0c.77,0,1.53,0,2.29,0a1,1,0,0,0,.95-1c.05-.67-.22-1.26-.9-1.29-1.52-.07-3,0-4.57,0-.58,0-.84.54-.86,1.09a1.07,1.07,0,0,0,1.06,1.19C32.81,39.57,33.49,39.52,34.17,39.52Zm.27-19.86c-.7,0-1.21,0-1.71,0-.75,0-1.66-.05-1.67,1S31.9,22,32.81,22a8.46,8.46,0,0,0,1.51,0c1.11-.19,3,.65,3-1.23S35.3,20,34.44,19.66Zm0,25.6c.34,0,.69,0,1,0,1,0,2,0,2-1.33-.05-1.12-1-1.16-1.93-1.13s-1.71.06-2.56,0a1.33,1.33,0,0,0-1.46,1.39c-.09.88.64,1.06,1.39,1.05Zm.1,9v0H32.75c-.8,0-1.63.06-1.58,1.16s.85,1.09,1.66,1.08c1.11,0,2.22,0,3.33,0,.78,0,1.36-.35,1.35-1.17s-.68-1.09-1.43-1.09Zm-.12-3.36c.89-.44,3,1,3-1.27,0-1.86-2-.94-3.09-1.16a2.76,2.76,0,0,0-.76,0c-1,.08-2.32-.22-2.37,1.21s1.32,1.16,2.28,1.22Zm0-19.42c-.64,0-1.15,0-1.66,0-.87,0-1.91,0-1.88,1.12a1.63,1.63,0,0,0,1.78,1.46q.76,0,1.53,0c1.29-.07,3.19,0,3.19-1.45C37.35,30.65,35.33,31.86,34.39,31.47ZM34,28.09a5.2,5.2,0,0,0,.7,0c1-.19,2.59.59,2.65-1.06s-1.54-1.11-2.55-1.24a1.74,1.74,0,0,0-.51,0C33.1,26,31,25,30.93,26.89S33.05,27.75,34,28.09Zm.44-14c-.61,0-1,0-1.45,0-.8,0-1.89-.27-2,1s1,1.3,1.94,1.35a6,6,0,0,0,1.27,0c1.12-.22,3.06.59,3.07-1.2C37.32,13.16,35.3,14.47,34.46,14Z"/><path class="cls-1" d="M43.34,66.31h23c.83,0,1.79-.33,1.66,1.12-.09,1-.18,1.87-1.55,1.79-1-.06-2,0-3.07,0H21.94c-.94,0-1.88-.09-2.82-.09S18,68.7,17.94,67.87s.26-1.36,1.07-1.45a26.3,26.3,0,0,1,2.81-.11H43.34Z"/><path class="cls-1" d="M63.91,49.82c0-2.2,0-4.4,0-6.61,0-.78-.11-1.92,1.15-1.85,1,0,1,1,1,1.77,0,4.49,0,9,0,13.47,0,1-.46,1.68-1.46,1.64s-.7-1-.71-1.55C63.88,54.4,63.91,52.11,63.91,49.82Z"/><path class="cls-1" d="M70.8,56.89a1.29,1.29,0,1,1-2.53,0c.76-3,.23-6.08.41-9.11,0-.6-.22-1.45.89-1.48s1.24.61,1.24,1.48C70.79,50.83,70.8,53.86,70.8,56.89Z"/><line class="cls-3" x1="99.32" y1="55.39" x2="99.32" y2="10.67"/><path class="cls-4" d="M118.53,24H132.6v2.46H121.19v7h10.65v2.46H121.19v8h12v2.46H118.53Z"/><path class="cls-4" d="M136.83,35c0-.67,0-1.31-.06-1.9s-.07-1.12-.07-1.61H139q0,.6,0,1.2c0,.4,0,.81,0,1.24h.06a4.23,4.23,0,0,1,.71-1A5.75,5.75,0,0,1,141,32a6.12,6.12,0,0,1,1.42-.63,6.56,6.56,0,0,1,3.72.06,4.86,4.86,0,0,1,1.34.73,3.43,3.43,0,0,1,.84.92c.2.32.36.61.49.87a7,7,0,0,1,1.89-2.08,4.85,4.85,0,0,1,2.78-.74,7.13,7.13,0,0,1,2.66.43,4.11,4.11,0,0,1,1.74,1.23,4.92,4.92,0,0,1,1,2,10.79,10.79,0,0,1,.28,2.58v9h-2.46V37.47a7.29,7.29,0,0,0-.16-1.48,3.56,3.56,0,0,0-.57-1.3,3,3,0,0,0-1.11-.91,3.82,3.82,0,0,0-1.77-.35,3.54,3.54,0,0,0-1.48.31,3.69,3.69,0,0,0-1.22.89,4.17,4.17,0,0,0-.82,1.37,5.13,5.13,0,0,0-.3,1.79v8.53h-2.47V38a6.82,6.82,0,0,0-.66-3.5,2.4,2.4,0,0,0-2.18-1,4.87,4.87,0,0,0-2.07.41A3.53,3.53,0,0,0,140.39,35a5.15,5.15,0,0,0-.83,1.8,9.66,9.66,0,0,0-.26,2.31v7.2h-2.47Z"/><path class="cls-4" d="M163.63,31.53h2.47v2.15h.06a7.23,7.23,0,0,1,2.35-1.86,6.5,6.5,0,0,1,3-.67,8.38,8.38,0,0,1,3.18.59,7.28,7.28,0,0,1,2.45,1.62,7.63,7.63,0,0,1,1.58,2.47,8.83,8.83,0,0,1,0,6.19,7.78,7.78,0,0,1-1.57,2.47,7.18,7.18,0,0,1-2.35,1.63,7.31,7.31,0,0,1-2.91.58,6.82,6.82,0,0,1-3.49-.87,5.65,5.65,0,0,1-2.2-2.13h-.06v9.83h-2.47Zm2.47,7.4a6.28,6.28,0,0,0,.36,2.16,5,5,0,0,0,1.06,1.74A4.9,4.9,0,0,0,169.18,44a5.67,5.67,0,0,0,4.33,0,5,5,0,0,0,1.66-1.17,5.12,5.12,0,0,0,1.06-1.74,6.28,6.28,0,0,0,.36-2.16,6.37,6.37,0,0,0-.36-2.17,5,5,0,0,0-2.72-2.91,5.79,5.79,0,0,0-4.33,0,5,5,0,0,0-2.72,2.91A6.37,6.37,0,0,0,166.1,38.93Z"/><path class="cls-4" d="M183.07,35c0-.67,0-1.31-.06-1.9s-.07-1.12-.07-1.61h2.34q0,.6,0,1.2c0,.4,0,.81,0,1.24h.07a4.23,4.23,0,0,1,.71-1,5.45,5.45,0,0,1,1.09-.9,5.92,5.92,0,0,1,3.13-.87,4.19,4.19,0,0,1,.5,0,3.18,3.18,0,0,1,.51.13l-.16,2.5a4.46,4.46,0,0,0-1.33-.19,3.75,3.75,0,0,0-3.3,1.47,7,7,0,0,0-1,4v7.2h-2.46Z"/><path class="cls-4" d="M206.84,43.64A7.6,7.6,0,0,1,203.93,46a9.14,9.14,0,0,1-3.67.68,7.67,7.67,0,0,1-3.13-.61,7.29,7.29,0,0,1-2.35-1.66A7.42,7.42,0,0,1,193.29,42a8.93,8.93,0,0,1-.52-3,8.48,8.48,0,0,1,.57-3.15,7.28,7.28,0,0,1,1.58-2.46,7.07,7.07,0,0,1,2.4-1.6,8,8,0,0,1,3-.57,7.67,7.67,0,0,1,2.84.52,6.28,6.28,0,0,1,2.23,1.52,6.91,6.91,0,0,1,1.44,2.43,10,10,0,0,1,.5,3.28v.79H195.43a5.18,5.18,0,0,0,.45,1.81,5.43,5.43,0,0,0,1,1.52,4.9,4.9,0,0,0,1.49,1,4.58,4.58,0,0,0,1.86.38,5.89,5.89,0,0,0,2.72-.57,6.14,6.14,0,0,0,2-1.68Zm-2.12-6a4.26,4.26,0,0,0-1.23-3,4.44,4.44,0,0,0-3.23-1.14,4.78,4.78,0,0,0-3.32,1.14,4.72,4.72,0,0,0-1.51,3Z"/><path class="cls-4" d="M211.2,35c0-.67,0-1.31-.07-1.9s-.06-1.12-.06-1.61h2.34q0,.6,0,1.2c0,.4,0,.81,0,1.24h.07a4,4,0,0,1,.71-1,5.45,5.45,0,0,1,1.09-.9,5.92,5.92,0,0,1,3.13-.87,6.59,6.59,0,0,1,2.51.44,4.68,4.68,0,0,1,1.75,1.24,4.83,4.83,0,0,1,1,1.91,8.64,8.64,0,0,1,.33,2.45v9.13h-2.46V37.44a4.8,4.8,0,0,0-.82-2.94,3,3,0,0,0-2.56-1.07,4.8,4.8,0,0,0-2.07.41A3.63,3.63,0,0,0,214.75,35a5.14,5.14,0,0,0-.82,1.8,9.15,9.15,0,0,0-.27,2.31v7.2H211.2Z"/><path class="cls-4" d="M241.06,43.7H241a5.58,5.58,0,0,1-2.2,2.13,6.82,6.82,0,0,1-3.49.87,7.31,7.31,0,0,1-2.91-.58,7.18,7.18,0,0,1-2.35-1.63A7.75,7.75,0,0,1,228.49,42a8.69,8.69,0,0,1,0-6.19,7.47,7.47,0,0,1,1.58-2.47,7.08,7.08,0,0,1,2.45-1.62,8.29,8.29,0,0,1,3.17-.59,6.5,6.5,0,0,1,3,.67A7.23,7.23,0,0,1,241,33.68h.06V22.43h2.47V46.32h-2.47Zm0-4.77a6.37,6.37,0,0,0-.36-2.17A5,5,0,0,0,239.64,35,5.09,5.09,0,0,0,238,33.85a5.34,5.34,0,0,0-2.16-.42,5.42,5.42,0,0,0-2.17.42A5.31,5.31,0,0,0,232,35a5.13,5.13,0,0,0-1.05,1.74,6.14,6.14,0,0,0-.37,2.17,6,6,0,0,0,.37,2.16A4.94,4.94,0,0,0,232,42.83,5,5,0,0,0,233.65,44a5.42,5.42,0,0,0,2.17.43A5.34,5.34,0,0,0,238,44a5,5,0,0,0,2.72-2.91A6.28,6.28,0,0,0,241.06,38.93Z"/><path class="cls-4" d="M247.76,25.75a1.76,1.76,0,0,1,.53-1.27,1.72,1.72,0,0,1,1.28-.53,1.75,1.75,0,0,1,1.28.53,1.79,1.79,0,0,1,.52,1.27,1.74,1.74,0,0,1-1.8,1.8,1.76,1.76,0,0,1-1.3-.51A1.73,1.73,0,0,1,247.76,25.75Zm.57,5.78h2.47V46.32h-2.47Z"/><path class="cls-4" d="M255.7,35c0-.67,0-1.31-.07-1.9s-.06-1.12-.06-1.61h2.34q0,.6,0,1.2c0,.4,0,.81,0,1.24H258a4,4,0,0,1,.71-1,5.45,5.45,0,0,1,1.09-.9,5.92,5.92,0,0,1,3.13-.87,5.73,5.73,0,0,1,2,.3,4.78,4.78,0,0,1,1.35.73,3.55,3.55,0,0,1,.83.92,8.22,8.22,0,0,1,.49.87,6.87,6.87,0,0,1,1.9-2.08,4.83,4.83,0,0,1,2.78-.74,7.13,7.13,0,0,1,2.66.43,4.14,4.14,0,0,1,1.73,1.23,4.79,4.79,0,0,1,1,2,10.77,10.77,0,0,1,.29,2.58v9h-2.47V37.47a6.64,6.64,0,0,0-.16-1.48,3.38,3.38,0,0,0-.56-1.3,3,3,0,0,0-1.11-.91,3.82,3.82,0,0,0-1.77-.35,3.59,3.59,0,0,0-1.49.31,3.65,3.65,0,0,0-1.21.89,4.17,4.17,0,0,0-.82,1.37,4.91,4.91,0,0,0-.31,1.79v8.53h-2.46V38a6.82,6.82,0,0,0-.66-3.5,2.41,2.41,0,0,0-2.18-1,4.88,4.88,0,0,0-2.08.41A3.67,3.67,0,0,0,259.25,35a5.14,5.14,0,0,0-.82,1.8,9.15,9.15,0,0,0-.27,2.31v7.2H255.7Z"/><path class="cls-4" d="M282.28,25.75a1.8,1.8,0,1,1,3.6,0,1.74,1.74,0,0,1-1.8,1.8,1.73,1.73,0,0,1-1.8-1.8Zm.57,5.78h2.46V46.32h-2.46Z"/><path class="cls-4" d="M303.42,43.64A7.45,7.45,0,0,1,300.51,46a9.05,9.05,0,0,1-3.66.68,7.67,7.67,0,0,1-3.13-.61A6.95,6.95,0,0,1,289.88,42a8.69,8.69,0,0,1-.52-3,8.48,8.48,0,0,1,.57-3.15,7.1,7.1,0,0,1,4-4.06,7.9,7.9,0,0,1,3-.57,7.77,7.77,0,0,1,2.85.52A6.24,6.24,0,0,1,302,33.19a6.62,6.62,0,0,1,1.44,2.43A9.78,9.78,0,0,1,304,38.9v.79H292A5.37,5.37,0,0,0,293.5,43a4.85,4.85,0,0,0,1.48,1,4.6,4.6,0,0,0,1.87.38,5.91,5.91,0,0,0,2.72-.57,6.25,6.25,0,0,0,2-1.68Zm-2.12-6a4.22,4.22,0,0,0-1.23-3,4.41,4.41,0,0,0-3.22-1.14A4.56,4.56,0,0,0,292,37.6Z"/><path class="cls-4" d="M307.78,35c0-.67,0-1.31-.06-1.9s-.06-1.12-.06-1.61H310c0,.4,0,.8,0,1.2s0,.81,0,1.24h.06a4.52,4.52,0,0,1,.71-1,5.75,5.75,0,0,1,1.09-.9,6.12,6.12,0,0,1,1.42-.63,5.89,5.89,0,0,1,1.71-.24,6.55,6.55,0,0,1,2.51.44,4.79,4.79,0,0,1,1.76,1.24,5.09,5.09,0,0,1,1,1.91,8.64,8.64,0,0,1,.33,2.45v9.13h-2.47V37.44a4.73,4.73,0,0,0-.82-2.94,3,3,0,0,0-2.56-1.07,4.87,4.87,0,0,0-2.07.41A3.6,3.6,0,0,0,311.34,35a5.14,5.14,0,0,0-.82,1.8,9.15,9.15,0,0,0-.27,2.31v7.2h-2.47Z"/><path class="cls-4" d="M333.45,33.62h-4.37V41c0,.49,0,.94,0,1.35a2.68,2.68,0,0,0,.25,1.07,1.73,1.73,0,0,0,.66.73,2.47,2.47,0,0,0,1.27.27,5.4,5.4,0,0,0,1.1-.13,4.47,4.47,0,0,0,1.08-.38l.09,2.24a5.87,5.87,0,0,1-1.4.42,9.69,9.69,0,0,1-1.47.12,5.2,5.2,0,0,1-2.12-.35,2.75,2.75,0,0,1-1.23-1,3.64,3.64,0,0,1-.59-1.56,14.44,14.44,0,0,1-.14-2.07V33.62H323.4V31.53h3.22v-4.2h2.46v4.2h4.37Z"/><path class="cls-4" d="M335.63,38.93a8,8,0,0,1,.6-3.16,7.48,7.48,0,0,1,1.64-2.45,7.3,7.3,0,0,1,2.5-1.6,9,9,0,0,1,6.32,0,7.3,7.3,0,0,1,2.5,1.6,7.48,7.48,0,0,1,1.64,2.45,8.62,8.62,0,0,1,0,6.32,7.58,7.58,0,0,1-1.64,2.45,7.42,7.42,0,0,1-2.5,1.59,9,9,0,0,1-6.32,0,7.42,7.42,0,0,1-2.5-1.59,7.58,7.58,0,0,1-1.64-2.45A8.05,8.05,0,0,1,335.63,38.93Zm2.65,0a6.28,6.28,0,0,0,.36,2.16,5.12,5.12,0,0,0,1.06,1.74A5,5,0,0,0,341.36,44a5.42,5.42,0,0,0,2.17.43,5.34,5.34,0,0,0,2.16-.43,5,5,0,0,0,2.72-2.91,6.28,6.28,0,0,0,.36-2.16,6.37,6.37,0,0,0-.36-2.17A5,5,0,0,0,347.35,35a5.09,5.09,0,0,0-1.66-1.17,5.34,5.34,0,0,0-2.16-.42,5.42,5.42,0,0,0-2.17.42,5,5,0,0,0-2.72,2.91A6.37,6.37,0,0,0,338.28,38.93Z"/><path class="cls-4" d="M355.57,42.44a6.2,6.2,0,0,0,1.6,1.45,4.06,4.06,0,0,0,2.19.54,5.81,5.81,0,0,0,1.16-.13,3.24,3.24,0,0,0,1.05-.41,2.36,2.36,0,0,0,.76-.71,1.83,1.83,0,0,0,.29-1,1.65,1.65,0,0,0-.27-1,2.48,2.48,0,0,0-.71-.65,3.83,3.83,0,0,0-1-.42c-.38-.11-.77-.2-1.17-.29-.7-.14-1.36-.31-2-.5a6.19,6.19,0,0,1-1.66-.75,3.39,3.39,0,0,1-1.14-1.18,3.62,3.62,0,0,1-.43-1.87,3.69,3.69,0,0,1,.48-1.89A4,4,0,0,1,356,32.26a6.23,6.23,0,0,1,1.77-.82,7.2,7.2,0,0,1,2-.29,6.82,6.82,0,0,1,2.93.63,4.64,4.64,0,0,1,2.1,2.06l-2.06,1.36a3.71,3.71,0,0,0-1.24-1.28,3.44,3.44,0,0,0-1.88-.49,4.59,4.59,0,0,0-1,.12,3.55,3.55,0,0,0-.93.38,2.12,2.12,0,0,0-.68.65,1.59,1.59,0,0,0-.27.9,1.16,1.16,0,0,0,.3.81,2.65,2.65,0,0,0,.82.58,7.54,7.54,0,0,0,1.2.45c.45.12.92.23,1.41.31a14.87,14.87,0,0,1,1.86.49,5.3,5.3,0,0,1,1.55.81,3.54,3.54,0,0,1,1,1.26,4.08,4.08,0,0,1,.38,1.87,4.35,4.35,0,0,1-.5,2.15,4.2,4.2,0,0,1-1.35,1.43,5.94,5.94,0,0,1-1.89.81,9.26,9.26,0,0,1-2.17.25,8.35,8.35,0,0,1-3.27-.58A5.9,5.9,0,0,1,353.61,44Z"/></svg>